<svg width="25" height="25" viewBox="0 0 50 50" fill="none" xmlns="http://www.w3.org/2000/svg">
<path d="M4.64844 29.3358L22.2949 45.8105C23.0273 46.4941 23.9941 46.8749 25 46.8749C26.0059 46.8749 26.9727 46.4941 27.7051 45.8105L45.3516 29.3358C48.3203 26.5722 50 22.6952 50 18.6425V18.0761C50 11.2499 45.0684 5.4296 38.3398 4.30655C33.8867 3.56437 29.3555 5.01944 26.1719 8.20304L25 9.37491L23.8281 8.20304C20.6445 5.01944 16.1133 3.56437 11.6602 4.30655C4.93164 5.4296 0 11.2499 0 18.0761V18.6425C0 22.6952 1.67969 26.5722 4.64844 29.3358Z" fill="#3b0819"/>
</svg>
